<svg width="22" height="21" viewBox="0 0 22 21" fill="none" xmlns="http://www.w3.org/2000/svg">
<g clip-path="url(#clip0_80_1246)">
<path d="M18.6728 15.2249L16.8441 12.3637V8.30804C16.9091 7.22969 16.6531 6.15579 16.1056 5.2105C15.5582 4.2652 14.7416 3.4871 13.7503 2.96616C13.7638 2.80016 13.7638 2.63341 13.7503 2.46741C13.7397 2.13298 13.66 1.80384 13.516 1.4988C13.372 1.19376 13.1664 0.918799 12.9111 0.689639C12.6557 0.46048 12.3555 0.281614 12.0276 0.163266C11.6997 0.0449182 11.3507 -0.0105908 11.0003 -8.78568e-05C10.65 -0.0105908 10.3009 0.0449182 9.97304 0.163266C9.64519 0.281614 9.34498 0.46048 9.08959 0.689639C8.83419 0.918799 8.62861 1.19376 8.48461 1.4988C8.3406 1.80384 8.26099 2.13298 8.25032 2.46741C8.23007 2.6331 8.23007 2.80047 8.25032 2.96616C7.25906 3.4871 6.44249 4.2652 5.89502 5.2105C5.34755 6.15579 5.09153 7.22969 5.15657 8.30804V12.3637L3.32782 15.2249C3.16963 15.4729 3.08324 15.7566 3.07746 16.0469C3.07168 16.3372 3.14673 16.6238 3.29493 16.8774C3.44314 17.131 3.6592 17.3425 3.92104 17.4903C4.18288 17.6381 4.48113 17.7169 4.78532 17.7187H7.21907C7.28268 18.6261 7.71204 19.4748 8.41705 20.0866C9.12206 20.6984 10.0479 21.0257 11.0003 20.9999C11.9527 21.0257 12.8786 20.6984 13.5836 20.0866C14.2886 19.4748 14.718 18.6261 14.7816 17.7187H17.2153C17.5195 17.7169 17.8178 17.6381 18.0796 17.4903C18.3414 17.3425 18.5575 17.131 18.7057 16.8774C18.8539 16.6238 18.929 16.3372 18.9232 16.0469C18.9174 15.7566 18.831 15.4729 18.6728 15.2249ZM9.96907 2.46741C9.99352 2.22822 10.1152 2.0077 10.3079 1.85313C10.5007 1.69855 10.7493 1.62224 11.0003 1.64054C11.2514 1.62224 11.4999 1.69855 11.6927 1.85313C11.8855 2.0077 12.0071 2.22822 12.0316 2.46741C11.6882 2.44688 11.3437 2.44688 11.0003 2.46741C10.6569 2.44654 10.3125 2.44654 9.96907 2.46741ZM11.0003 19.3593C10.5035 19.3831 10.0154 19.2276 9.63327 18.9236C9.25111 18.6196 9.00283 18.1894 8.93782 17.7187H13.0628C12.9978 18.1894 12.7495 18.6196 12.3674 18.9236C11.9852 19.2276 11.4972 19.3831 11.0003 19.3593ZM4.78532 16.078L6.62782 13.2299L6.87532 12.823V8.30804C6.87202 7.32511 7.15786 6.36103 7.70032 5.52554C8.07462 5.03587 8.57514 4.64684 9.15332 4.39619C9.73151 4.14553 10.3677 4.04175 11.0003 4.09491C11.6329 4.04175 12.2691 4.14553 12.8473 4.39619C13.4255 4.64684 13.926 5.03587 14.3003 5.52554C14.8428 6.36103 15.1286 7.32511 15.1253 8.30804V12.823L15.3728 13.2299L17.2153 16.078H4.78532Z" fill="#132023"/>
</g>
<defs>
<clipPath id="clip0_80_1246">
<rect width="22" height="21" fill="white"/>
</clipPath>
</defs>
</svg>
