<svg width="21" height="21" viewBox="0 0 21 21" fill="none" xmlns="http://www.w3.org/2000/svg">
<path d="M20.3438 19.2806H18.7031V10.2112C18.6977 10.0905 18.6654 9.97245 18.6086 9.86574C18.5519 9.75904 18.4721 9.66632 18.375 9.59432L11.025 3.54369C10.874 3.42337 10.6866 3.35785 10.4934 3.35785C10.3003 3.35785 10.1129 3.42337 9.96187 3.54369L2.625 9.59432C2.53516 9.67017 2.46283 9.7646 2.41298 9.87109C2.36313 9.97758 2.33696 10.0936 2.33625 10.2112V19.2806H0.65625V10.2112C0.656733 9.84989 0.736978 9.49315 0.891258 9.16644C1.04554 8.83973 1.27004 8.55111 1.54875 8.32119L8.925 2.28369C9.36676 1.91996 9.9212 1.72107 10.4934 1.72107C11.0657 1.72107 11.6201 1.91996 12.0619 2.28369L19.4513 8.32119C19.73 8.55111 19.9545 8.83973 20.1087 9.16644C20.263 9.49315 20.3433 9.84989 20.3438 10.2112V19.2806Z" fill="#000303"/>
<path d="M14.5033 15.8943H12.8627C12.8288 15.3 12.5615 14.7432 12.1191 14.345C11.6766 13.9468 11.0948 13.7394 10.5002 13.7681C9.90562 13.7394 9.3238 13.9468 8.88134 14.345C8.43888 14.7432 8.17161 15.3 8.1377 15.8943H6.5627C6.6067 14.8799 7.04088 13.9217 7.77459 13.2197C8.5083 12.5178 9.48481 12.1265 10.5002 12.1274C11.5269 12.1094 12.52 12.4931 13.2678 13.1968C14.0156 13.9005 14.459 14.8684 14.5033 15.8943ZM6.49707 15.8943H8.1377V19.2806H6.49707V15.8943ZM12.8627 15.8943H14.5033V19.2806H12.8627V15.8943Z" fill="#000303"/>
</svg>
