<svg width="16" height="17" viewBox="0 0 16 17" fill="none" xmlns="http://www.w3.org/2000/svg">
<path d="M8 8.13852C3.59213 8.13852 0 10.394 0 13.1692V16.6304H1.81753V13.1692C1.81753 11.0904 4.59392 9.45856 8 9.45856C11.4061 9.45856 14.1825 11.1216 14.1825 13.1692V16.6304H16V13.1692C16 10.394 12.4079 8.13852 8 8.13852ZM8.14311 6.87045C9.35789 6.83791 10.5058 6.45808 11.3367 5.81368C12.1677 5.16929 12.6144 4.31254 12.5796 3.43003C12.6143 2.54853 12.1672 1.6929 11.3358 1.05016C10.5045 0.407423 9.35662 0.0298583 8.14311 0C6.92961 0.0298583 5.78172 0.407423 4.95039 1.05016C4.11905 1.6929 3.67188 2.54853 3.70662 3.43003C3.67182 4.31254 4.11854 5.16929 4.9495 5.81368C5.78046 6.45808 6.92833 6.83791 8.14311 6.87045ZM8.14311 1.34083C8.86448 1.3704 9.54077 1.60513 10.0256 1.99421C10.5104 2.38328 10.7647 2.89538 10.7335 3.41963C10.761 3.94319 10.5054 4.45379 10.0213 4.84226C9.53726 5.23073 8.86314 5.46624 8.14311 5.49844C7.42563 5.46365 6.75512 5.22701 6.27408 4.83882C5.79304 4.45063 5.53941 3.9415 5.56708 3.41963C5.53571 2.89707 5.78807 2.38646 6.26984 1.99768C6.75162 1.60889 7.4243 1.37302 8.14311 1.34083Z" fill="black"/>
</svg>
