<svg width="14" height="14" viewBox="0 0 14 14" fill="none" xmlns="http://www.w3.org/2000/svg">
<path d="M12.3958 13.5833C12.9816 13.5833 13.4583 13.1066 13.4583 12.5208V10.0417C13.4583 9.45588 12.9816 8.97917 12.3958 8.97917C11.5671 8.97917 10.7525 8.84883 9.97333 8.59171C9.78708 8.5329 9.58836 8.52575 9.39837 8.57103C9.20837 8.61632 9.03424 8.71233 8.89454 8.84883L7.87454 9.86883C6.11158 8.91175 4.66369 7.46435 3.706 5.70171L4.7175 4.68383C5.00933 4.41325 5.11417 4.00171 4.9895 3.60575C4.7329 2.82538 4.60281 2.00898 4.60417 1.1875C4.60417 0.601708 4.12746 0.125 3.54167 0.125H1.0625C0.476708 0.125 0 0.601708 0 1.1875C0 8.02292 5.56042 13.5833 12.3958 13.5833ZM1.0625 0.833333H3.54167C3.6356 0.833333 3.72568 0.870647 3.7921 0.937066C3.85852 1.00349 3.89583 1.09357 3.89583 1.1875C3.89583 2.09204 4.0375 2.98029 4.31588 3.8225C4.33633 3.88362 4.33872 3.94933 4.32276 4.01177C4.30681 4.07422 4.27318 4.13073 4.22592 4.17454L2.84042 5.56712C3.99996 7.85363 5.71271 9.56637 8.00983 10.7358L9.39038 9.35458C9.43748 9.30797 9.49638 9.27504 9.56076 9.25932C9.62514 9.2436 9.69258 9.24568 9.75587 9.26533C10.603 9.54583 11.4913 9.6875 12.3958 9.6875C12.5906 9.6875 12.75 9.84688 12.75 10.0417V12.5208C12.75 12.7156 12.5906 12.875 12.3958 12.875C5.95142 12.875 0.708333 7.63192 0.708333 1.1875C0.708333 1.09357 0.745647 1.00349 0.812066 0.937066C0.878486 0.870647 0.968569 0.833333 1.0625 0.833333Z" fill="#FBF2F2"/>
</svg>
