<svg width="26" height="26" viewBox="0 0 26 26" fill="none" xmlns="http://www.w3.org/2000/svg">
<path d="M23.7507 5.9198C19.9107 -0.000195503 12.0707 -1.7602 5.99074 1.9198C0.0707412 5.5998 -1.84926 13.5998 1.99074 19.5198L2.31074 19.9998L1.03074 24.7998L5.83074 23.5198L6.31074 23.8398C8.39074 24.9598 10.6307 25.5998 12.8707 25.5998C15.2707 25.5998 17.6707 24.9598 19.7507 23.6798C25.6707 19.8398 27.4307 11.9998 23.7507 5.9198ZM20.3907 18.2398C19.7507 19.1998 18.9507 19.8398 17.8307 19.9998C17.1907 19.9998 16.3907 20.3198 13.1907 19.0398C10.4707 17.7598 8.23074 15.6798 6.63074 13.2798C5.67074 12.1598 5.19074 10.7198 5.03074 9.2798C5.03074 7.9998 5.51074 6.8798 6.31074 6.0798C6.63074 5.7598 6.95074 5.5998 7.27074 5.5998H8.07074C8.39074 5.5998 8.71074 5.5998 8.87074 6.2398C9.19074 7.0398 9.99074 8.9598 9.99074 9.1198C10.1507 9.2798 10.1507 9.5998 9.99074 9.7598C10.1507 10.0798 9.99074 10.3998 9.83074 10.5598C9.67074 10.7198 9.51074 11.0398 9.35074 11.1998C9.03074 11.3598 8.87074 11.6798 9.03074 11.9998C9.67074 12.9598 10.4707 13.9198 11.2707 14.7198C12.2307 15.5198 13.1907 16.1598 14.3107 16.6398C14.6307 16.7998 14.9507 16.7998 15.1107 16.4798C15.2707 16.1598 16.0707 15.3598 16.3907 15.0398C16.7107 14.7198 16.8707 14.7198 17.1907 14.8798L19.7507 16.1598C20.0707 16.3198 20.3907 16.4798 20.5507 16.6398C20.7107 17.1198 20.7107 17.7598 20.3907 18.2398Z" fill="#BFA1AD"/>
</svg>
