<svg width="24" height="24" viewBox="0 0 24 24" fill="none" xmlns="http://www.w3.org/2000/svg">
<path d="M5.331 11.997C5.331 12.5044 5.3865 12.9982 5.493 13.4741H0.75C0.551088 13.4741 0.360322 13.5532 0.21967 13.6939C0.0790178 13.8347 0 14.0256 0 14.2247C0 14.4237 0.0790178 14.6146 0.21967 14.7554C0.360322 14.8962 0.551088 14.9752 0.75 14.9752H23.25C23.4489 14.9752 23.6397 14.8962 23.7803 14.7554C23.921 14.6146 24 14.4237 24 14.2247C24 14.0256 23.921 13.8347 23.7803 13.6939C23.6397 13.5532 23.4489 13.4741 23.25 13.4741H18.612C18.8181 12.5516 18.8276 11.596 18.64 10.6696C18.4523 9.74324 18.0716 8.86682 17.5227 8.09753C16.9739 7.32825 16.2692 6.68336 15.4545 6.20493C14.6399 5.72649 13.7337 5.42525 12.7949 5.32084C11.8562 5.21643 10.9059 5.3112 10.0062 5.59897C9.10653 5.88674 8.27753 6.36104 7.57328 6.99096C6.86903 7.62087 6.30536 8.39226 5.91901 9.25482C5.53265 10.1174 5.3323 11.0517 5.331 11.997ZM17.064 13.4741H7.044C6.8154 12.695 6.7714 11.8733 6.91547 11.0742C7.05954 10.275 7.38772 9.52052 7.87398 8.87047C8.36024 8.22042 8.99119 7.69273 9.71677 7.32926C10.4424 6.96578 11.2426 6.77654 12.054 6.77654C12.8654 6.77654 13.6656 6.96578 14.3912 7.32926C15.1168 7.69273 15.7478 8.22042 16.234 8.87047C16.7203 9.52052 17.0485 10.275 17.1925 11.0742C17.3366 11.8733 17.2926 12.695 17.064 13.4741ZM12.039 24C12.094 24 12.1488 23.9939 12.2025 23.982H11.8725C11.9267 23.994 11.982 24.0001 12.0375 24H12.039ZM4.509 3.45259L4.614 3.53965L5.901 4.82762C6.03388 4.96 6.11238 5.13739 6.12105 5.32483C6.12972 5.51227 6.06792 5.69615 5.94784 5.84025C5.82775 5.98435 5.65808 6.07822 5.47227 6.10334C5.28647 6.12846 5.09799 6.08302 4.944 5.97598L4.839 5.88892L3.552 4.60095C3.41912 4.46857 3.34062 4.29118 3.33195 4.10374C3.32328 3.91631 3.38508 3.73242 3.50516 3.58832C3.62525 3.44422 3.79492 3.35036 3.98073 3.32523C4.16653 3.30011 4.35501 3.34555 4.509 3.45259ZM20.52 3.53965C20.6439 3.66375 20.7204 3.82734 20.7363 4.00202C20.7522 4.1767 20.7064 4.35143 20.607 4.49587L20.52 4.60095L19.2315 5.88892C19.0988 6.01994 18.9221 6.09681 18.7358 6.10454C18.5496 6.11227 18.3671 6.0503 18.224 5.93072C18.0809 5.81114 17.9875 5.64252 17.9619 5.45773C17.9363 5.27295 17.9803 5.08524 18.0855 4.9312L18.171 4.82612L19.4595 3.53965C19.6001 3.39895 19.7909 3.3199 19.9897 3.3199C20.1886 3.3199 20.3794 3.39895 20.52 3.53965ZM12.0405 4.17467e-08C12.216 -5.85231e-05 12.386 0.0615033 12.5209 0.173964C12.6557 0.286426 12.7469 0.442661 12.7785 0.615462L12.7905 0.750563V2.57293C12.7908 2.76049 12.721 2.94138 12.5947 3.07998C12.4685 3.21859 12.2949 3.30486 12.1083 3.3218C11.9216 3.33875 11.7354 3.28515 11.5863 3.17155C11.4371 3.05795 11.3359 2.89259 11.3025 2.70803L11.2905 2.57293V0.750563C11.2905 0.551501 11.3695 0.360593 11.5102 0.219835C11.6508 0.0790771 11.8416 4.17467e-08 12.0405 4.17467e-08ZM9.75 20.9797C9.55109 20.9797 9.36032 21.0588 9.21967 21.1996C9.07902 21.3403 9 21.5312 9 21.7303C9 21.9294 9.07902 22.1203 9.21967 22.261C9.36032 22.4018 9.55109 22.4809 9.75 22.4809H14.25C14.4489 22.4809 14.6397 22.4018 14.7803 22.261C14.921 22.1203 15 21.9294 15 21.7303C15 21.5312 14.921 21.3403 14.7803 21.1996C14.6397 21.0588 14.4489 20.9797 14.25 20.9797H9.75ZM4.5 17.9775C4.5 17.7784 4.57902 17.5875 4.71967 17.4468C4.86032 17.306 5.05109 17.2269 5.25 17.2269H18.75C18.9489 17.2269 19.1397 17.306 19.2803 17.4468C19.421 17.5875 19.5 17.7784 19.5 17.9775C19.5 18.1765 19.421 18.3675 19.2803 18.5082C19.1397 18.649 18.9489 18.728 18.75 18.728H5.25C5.05109 18.728 4.86032 18.649 4.71967 18.5082C4.57902 18.3675 4.5 18.1765 4.5 17.9775Z" fill="black"/>
</svg>
